{
  "asset": { "version": "2.0", "generator": "WOtech2" },
  "scene": 0,
  "scenes": [{ "nodes": [0] }],
  "nodes": [{ "name": "Triangle", "mesh": 0 }],
  "meshes": [{
    "name": "Triangle",
    "primitives": [{
      "attributes": { "POSITION": 0 },
      "material": 0
    }]
  }],
  "materials": [{
    "name": "Pbr",
    "pbrMetallicRoughness": {
      "baseColorFactor": [0.8, 0.2, 0.1, 1],
      "metallicFactor": 0.1,
      "roughnessFactor": 0.4
    }
  }],
  "accessors": [{
    "bufferView": 0,
    "componentType": 5126,
    "count": 3,
    "type": "VEC3",
    "max": [1, 1, 0],
    "min": [0, 0, 0]
  }],
  "bufferViews": [{ "buffer": 0, "byteOffset": 0, "byteLength": 36 }],
  "buffers": [{
    "byteLength": 36,
    "uri": "data:application/octet-stream;base64,"
  }]
}
